<?xml version="1.0" standalone="no"?>
<!DOCTYPE svg PUBLIC "-//W3C//DTD SVG 20010904//EN"
 "http://www.w3.org/TR/2001/REC-SVG-20010904/DTD/svg10.dtd">
<svg version="1.0" xmlns="http://www.w3.org/2000/svg"
 width="215.000000pt" height="215.000000pt" viewBox="0 0 215.000000 215.000000"
 preserveAspectRatio="xMidYMid meet">
<metadata>
Created by potrace 1.14, written by Peter Selinger 2001-2017
</metadata>
<g transform="translate(0.000000,215.000000) scale(0.100000,-0.100000)"
fill="#000000" stroke="none">
<path d="M521 1877 c-6 -6 -11 -17 -11 -24 0 -7 -6 -13 -14 -13 -8 0 -51 -20
-97 -44 -46 -25 -112 -53 -147 -62 -75 -21 -71 -43 5 -26 75 17 164 19 148 3
-6 -5 -61 -30 -124 -55 -128 -51 -161 -70 -161 -91 0 -8 -4 -15 -10 -15 -14 0
-12 64 2 78 9 9 8 12 -5 12 -14 0 -16 6 -11 25 5 20 1 26 -22 35 -33 13 -37 9
-58 -54 -22 -68 -21 -76 12 -76 25 0 29 -5 41 -48 l12 -48 67 -16 c50 -13 69
-14 74 -5 4 7 22 36 41 66 l35 54 18 -29 c30 -48 55 -64 106 -64 65 0 98 29
105 92 l6 47 26 -13 c14 -8 55 -35 89 -61 39 -28 70 -44 80 -40 12 5 10 11
-14 36 -74 77 -221 136 -313 125 -46 -5 -46 -5 -16 9 45 21 138 19 185 -5 21
-11 64 -23 94 -26 43 -5 56 -11 56 -23 0 -21 116 -136 124 -123 3 5 -3 35 -14
66 -12 35 -15 58 -9 62 6 3 33 -6 62 -20 28 -14 53 -23 56 -21 9 9 -53 132
-82 163 -17 18 -48 38 -69 44 -21 6 -38 15 -38 19 0 6 -87 66 -112 77 -16 7
-7 -23 13 -44 12 -12 19 -28 17 -35 -3 -9 -10 -6 -24 10 -29 35 -108 73 -123
58z"/>
<path d="M1611 1871 c-7 -12 -18 -17 -33 -14 -15 3 -30 -3 -42 -16 -15 -16
-26 -19 -67 -14 -45 5 -49 4 -60 -20 -6 -14 -25 -31 -41 -38 -66 -27 -148
-139 -148 -201 0 -48 10 -48 35 -1 11 21 36 48 55 61 32 22 35 22 41 5 4 -10
13 -33 20 -51 l12 -33 46 45 c25 24 60 48 76 52 17 4 37 12 45 19 37 32 168
45 240 25 37 -10 135 -68 128 -75 -2 -2 -31 6 -63 19 -33 13 -79 27 -102 31
-92 15 -224 -40 -286 -117 -55 -69 -15 -59 80 18 30 24 60 44 67 44 8 0 16
-16 19 -41 7 -54 28 -75 89 -87 66 -13 90 -3 120 48 l25 40 35 -57 36 -58 -19
-37 c-10 -20 -19 -40 -19 -43 0 -13 25 -2 57 25 18 17 43 30 55 30 18 0 20 4
15 35 -7 40 -7 40 58 20 55 -16 83 -9 38 10 -16 7 -47 34 -69 61 -60 75 -82
90 -189 136 l-100 43 58 3 c50 3 57 5 47 18 -7 7 -24 14 -39 14 -18 0 -35 11
-54 35 -22 28 -33 34 -51 29 -17 -4 -33 3 -59 25 -41 36 -43 37 -56 12z"/>
<path d="M358 1383 c-70 -3 -100 -16 -65 -28 25 -9 190 10 195 23 2 8 -6 11
-25 10 -15 -1 -63 -4 -105 -5z"/>
<path d="M1723 1356 c5 -14 129 -15 134 -1 2 6 -25 10 -67 11 -46 0 -69 -3
-67 -10z"/>
<path d="M1220 1165 c0 -1 13 -30 28 -65 l29 -62 21 34 c25 40 28 63 10 74
-11 7 -88 24 -88 19z"/>
<path d="M856 1114 c-10 -26 4 -37 25 -18 10 9 16 21 13 25 -9 15 -31 10 -38
-7z"/>
<path d="M1301 964 c-104 -31 -121 -40 -121 -64 0 -14 -11 -22 -42 -31 -62
-16 -108 1 -155 57 -36 45 -38 46 -81 40 -25 -3 -74 -1 -109 6 -75 14 -83 8
-83 -58 0 -27 7 -51 21 -68 18 -23 28 -26 76 -26 46 0 65 -6 107 -32 63 -41
48 -45 -78 -24 -132 23 -130 23 -123 -21 8 -48 -6 -63 -57 -63 -23 0 -51 -6
-61 -14 -16 -12 -21 -11 -34 2 -12 12 -32 14 -101 9 -47 -3 -106 -2 -133 2
-44 7 -47 7 -47 -15 0 -14 12 -30 33 -44 l32 -22 -49 6 c-40 5 -47 3 -42 -9 4
-10 -3 -20 -19 -27 -25 -11 -34 -28 -15 -28 6 0 10 -9 10 -19 0 -11 -4 -23
-10 -26 -16 -10 -11 -45 10 -72 25 -32 25 -50 0 -65 -29 -19 -25 -26 23 -39
58 -16 171 -13 237 7 30 8 93 20 140 25 95 10 210 37 210 49 0 5 -8 10 -17 13
-15 3 -14 6 7 15 14 6 37 13 51 16 39 8 143 83 151 108 3 13 6 40 7 60 2 60
19 53 26 -12 7 -63 15 -73 110 -153 29 -25 30 -25 11 -46 -18 -20 -18 -21 8
-31 14 -5 38 -15 54 -21 15 -7 79 -15 142 -18 97 -5 121 -10 146 -28 17 -13
44 -23 60 -23 60 -1 233 15 240 23 11 11 18 121 10 154 -4 15 -44 64 -88 109
-72 74 -84 82 -109 77 -22 -4 -29 -2 -29 11 0 21 -13 20 -52 -4 -45 -27 -58
-25 -58 9 0 48 -27 51 -43 6 -2 -5 -13 -2 -24 8 -11 9 -25 17 -32 17 -7 0 -11
11 -9 27 3 23 -2 28 -32 37 -47 13 -47 13 -16 37 14 11 33 34 41 49 22 42 19
151 -4 149 -3 0 -44 -11 -90 -25z"/>
</g>
</svg>
